<svg width="500" height="500" viewBox="0 0 500 500" fill="none" xmlns="http://www.w3.org/2000/svg">
<path d="M432.621 0H67.378C30.168 0 0.00195312 30.1648 0.00195312 67.376V432.622C0.00195312 469.833 30.1667 499.998 67.378 499.998H247.514L247.821 321.325H201.402C195.37 321.325 190.474 316.448 190.45 310.415L190.228 252.822C190.204 246.756 195.115 241.827 201.181 241.827H247.515V186.177C247.515 121.596 286.958 86.4311 344.568 86.4311H391.842C397.89 86.4311 402.795 91.3346 402.795 97.3842V145.947C402.795 151.994 397.894 156.897 391.848 156.9L362.837 156.914C331.506 156.914 325.44 171.802 325.44 193.65V241.828H394.283C400.843 241.828 405.932 247.556 405.159 254.071L398.333 311.664C397.68 317.175 393.006 321.328 387.457 321.328H325.747L325.44 500H432.624C469.834 500 499.998 469.835 499.998 432.625V67.376C499.997 30.1648 469.832 0 432.621 0Z" fill="#475993"/>
</svg>
