<svg width="24" height="24" viewBox="0 0 24 24" fill="none" xmlns="http://www.w3.org/2000/svg">
<path d="M17.592 14.4961C13.8009 14.5147 13.1876 16.7985 12.9832 18.7295L12.8903 19.5836H12.1283L12.0354 18.7295C11.831 16.7985 11.1991 14.5147 7.53804 14.4961C6.92478 13.2334 6.6646 12.2122 6.6646 11.061C6.6646 8.1831 9.0248 5.49072 12.5185 5.49072C16.0124 5.49072 18.3354 8.16444 18.3354 11.0797C18.3354 12.2122 18.2239 13.2334 17.592 14.4961ZM12.4814 2C6.72041 2 2 6.71622 2 12.4907C2 18.2839 6.72041 23 12.4814 23C18.2982 23 23 18.2839 23 12.4907C23 6.71624 18.2982 2 12.4814 2Z" fill="#9096A3"/>
</svg>
