<svg width="24" height="24" viewBox="0 0 24 24" fill="none" xmlns="http://www.w3.org/2000/svg">
<path d="M17.5481 2.00416L14.6699 2C11.4362 2 9.34653 3.9319 9.34653 6.92203V9.19141H6.45258C6.20251 9.19141 6 9.37409 6 9.59943V12.8875C6 13.1128 6.20274 13.2953 6.45258 13.2953H9.34653V21.5922C9.34653 21.8175 9.54904 22 9.79911 22H13.5749C13.825 22 14.0275 21.8173 14.0275 21.5922V13.2953H17.4112C17.6613 13.2953 17.8638 13.1128 17.8638 12.8875L17.8652 9.59943C17.8652 9.49123 17.8174 9.38762 17.7326 9.31105C17.6479 9.23448 17.5324 9.19141 17.4123 9.19141H14.0275V7.26763C14.0275 6.34298 14.272 5.87358 15.6087 5.87358L17.5477 5.87295C17.7975 5.87295 18 5.69027 18 5.46514V2.41197C18 2.18705 17.7977 2.00458 17.5481 2.00416Z" fill="#9096A3"/>
</svg>
