<svg width="24" height="24" viewBox="0 0 24 24" fill="none" xmlns="http://www.w3.org/2000/svg">
<path fill-rule="evenodd" clip-rule="evenodd" d="M3.75 11.2C3.75 8.20021 3.75 6.70032 4.51393 5.64886C4.76065 5.30928 5.05928 5.01065 5.39886 4.76393C6.45032 4 7.95021 4 10.95 4H13.05C16.0498 4 17.5497 4 18.6011 4.76393C18.9407 5.01065 19.2394 5.30928 19.4861 5.64886C20.25 6.70032 20.25 8.20021 20.25 11.2V13.3C20.25 16.2998 20.25 17.7997 19.4861 18.8511C19.2394 19.1907 18.9407 19.4894 18.6011 19.7361C17.5497 20.5 16.0498 20.5 13.05 20.5H10.95C7.95021 20.5 6.45032 20.5 5.39886 19.7361C5.05928 19.4894 4.76065 19.1907 4.51393 18.8511C3.75 17.7997 3.75 16.2998 3.75 13.3V11.2ZM12 7.88235C9.58797 7.88235 7.63235 9.83796 7.63235 12.25C7.63235 14.662 9.58797 16.6176 12 16.6176C14.412 16.6176 16.3677 14.662 16.3677 12.25C16.3677 9.83796 14.412 7.88235 12 7.88235ZM12 14.9798C10.4953 14.9798 9.27022 13.7547 9.27022 12.25C9.27022 10.7443 10.4953 9.52022 12 9.52022C13.5047 9.52022 14.7298 10.7443 14.7298 12.25C14.7298 13.7547 13.5047 14.9798 12 14.9798ZM17.2771 7.55479C17.2771 7.87621 17.0166 8.13678 16.6951 8.13678C16.3737 8.13678 16.1132 7.87621 16.1132 7.55479C16.1132 7.23336 16.3737 6.9728 16.6951 6.9728C17.0166 6.9728 17.2771 7.23336 17.2771 7.55479Z" fill="#9096A3"/>
</svg>
