<svg width="24" height="24" viewBox="0 0 24 24" fill="none" xmlns="http://www.w3.org/2000/svg">
<g clip-path="url(#clip0_1566_174)">
<path d="M12 9C12.8284 9 13.5 8.32843 13.5 7.5C13.5 6.67157 12.8284 6 12 6C11.1716 6 10.5 6.67157 10.5 7.5C10.5 8.32843 11.1716 9 12 9Z" fill="#0272B8"/>
<path d="M17.25 7.5C17.25 12.75 12 15.75 12 15.75C12 15.75 6.75 12.75 6.75 7.5C6.75 6.10761 7.30312 4.77226 8.28769 3.78769C9.27226 2.80312 10.6076 2.25 12 2.25C13.3924 2.25 14.7277 2.80312 15.7123 3.78769C16.6969 4.77226 17.25 6.10761 17.25 7.5Z" stroke="#0272B8" stroke-width="1.5" stroke-linecap="round" stroke-linejoin="round"/>
<path d="M18.75 14.5444C20.5987 15.2269 21.75 16.1869 21.75 17.2501C21.75 19.321 17.385 21.0001 12 21.0001C6.615 21.0001 2.25 19.321 2.25 17.2501C2.25 16.1869 3.40125 15.2269 5.25 14.5444" stroke="#0272B8" stroke-width="1.5" stroke-linecap="round" stroke-linejoin="round"/>
</g>
<defs>
<clipPath id="clip0_1566_174">
<rect width="24" height="24" fill="white"/>
</clipPath>
</defs>
</svg>
