<svg width="24" height="24" viewBox="0 0 24 24" fill="none" xmlns="http://www.w3.org/2000/svg">
<path d="M12.0011 2C13.5351 2.00044 15.0485 2.35369 16.4242 3.03242C17.7999 3.71115 19.001 4.69717 19.9346 5.91421C20.8682 7.13125 21.5092 8.54669 21.8082 10.0511C22.1072 11.5554 22.056 13.1084 21.6588 14.5898C21.2615 16.0713 20.5287 17.4415 19.517 18.5945C18.5054 19.7475 17.242 20.6524 15.8247 21.2392C14.4074 21.826 12.874 22.079 11.3433 21.9785C9.81249 21.8781 8.32535 21.427 6.99687 20.66L3.09616 21.9567C2.94944 22.0053 2.79208 22.0122 2.64165 21.9766C2.49123 21.941 2.35368 21.8643 2.24437 21.755C2.13506 21.6457 2.05831 21.5082 2.02268 21.3578C1.98706 21.2074 1.99397 21.05 2.04264 20.9033L3.34288 17.005C2.46394 15.4849 2.00079 13.7603 2 12.0045C1.99921 10.2487 2.4608 8.52365 3.33837 7.0028C4.21593 5.48195 5.47853 4.21893 6.99919 3.34073C8.51986 2.46253 10.245 2.00012 12.0011 2ZM8.55381 7.005C8.42657 7.00893 8.30176 7.04084 8.18825 7.09845C8.07473 7.15606 7.97531 7.23796 7.89703 7.33833C7.67199 7.60167 7.03687 8.24333 7.03687 9.54667C7.03687 10.8517 7.9187 12.1133 8.04205 12.29C8.16374 12.4633 9.77736 15.14 12.2461 16.29C12.7051 16.5033 13.1719 16.6894 13.6464 16.8483C14.2365 17.0483 14.7749 17.0217 15.2 16.955C15.6734 16.88 16.6553 16.315 16.8603 15.6933C17.0637 15.0767 17.0637 14.545 17.002 14.435C16.9403 14.325 16.777 14.2567 16.5286 14.1217C15.9753 13.8218 15.4151 13.5351 14.8483 13.2617C14.6232 13.1717 14.4582 13.1283 14.2948 13.395C14.1298 13.66 13.6614 14.2583 13.5164 14.435C13.3747 14.6067 13.2297 14.6317 12.9829 14.5C12.7362 14.3683 11.9444 14.0867 11.0043 13.1833C10.4611 12.6413 10.0006 12.0225 9.63734 11.3467C9.49065 11.08 9.62067 10.9383 9.74236 10.805C9.85405 10.6883 9.98907 10.4967 10.1124 10.34C10.2341 10.19 10.2775 10.0783 10.3591 9.9C10.4408 9.72333 10.3991 9.56667 10.3375 9.43667C10.2758 9.30333 9.78403 7.99667 9.57733 7.465C9.37729 6.94833 9.17559 7.02167 9.0239 7.01167C8.8822 7.005 8.71884 7.005 8.55381 7.005Z" fill="#9096A3"/>
</svg>
