<svg width="24" height="24" viewBox="0 0 24 24" fill="none" xmlns="http://www.w3.org/2000/svg">
<path d="M22.45 6.58036C22.175 5.51786 21.4875 4.75893 20.525 4.45536C18.875 4 11.8625 4 11.8625 4C11.8625 4 4.98751 4 3.20001 4.45536C2.23751 4.75893 1.55 5.51786 1.275 6.58036C0.999996 8.55357 1 12.5 1 12.5C1 12.5 1 16.4464 1.4125 18.4196C1.6875 19.4821 2.375 20.2411 3.3375 20.5446C4.9875 21 12 21 12 21C12 21 18.875 21 20.6625 20.5446C21.625 20.2411 22.3125 19.4821 22.5875 18.4196C23 16.4464 23 12.5 23 12.5C23 12.5 23 8.55357 22.45 6.58036ZM9.79999 16.1429V8.85714L15.575 12.5L9.79999 16.1429Z" fill="#9096A3"/>
</svg>
